<svg width="128" height="32" viewBox="0 0 128 32" fill="none" xmlns="http://www.w3.org/2000/svg">
<path d="M2.33398 1.47961H14.143V4.95961H10.7572V13.3596H5.82302V4.95961H2.33398V1.47961Z" fill="black"/>
<path d="M20.1286 6.31962L17.6306 13.3596H12.9028L17.5686 1.47961H22.7093L27.437 13.3596H22.668L20.1286 6.31962Z" fill="black"/>
<path d="M26.3442 1.47961H38.1533V4.95961H34.7675V13.3596H29.8333V4.95961H26.3442V1.47961Z" fill="black"/>
<path d="M44.1388 6.31962L41.6407 13.3596H36.913L41.5375 1.47961H46.7194L51.4472 13.3596H46.6781L44.1388 6.31962Z" fill="black"/>
<path d="M111.876 8.55916C112.639 8.77916 113.011 9.29916 113.279 10.5192C113.61 11.9992 113.94 13.0192 114.085 13.3392H116.356C116.128 12.8592 115.819 11.5392 115.427 10.0392C115.096 8.87917 114.621 8.01916 113.692 7.69916V7.63917C114.89 7.25917 115.922 6.19916 115.922 4.65916C115.922 3.65916 115.53 2.79916 114.89 2.25916C114.188 1.67916 113.218 1.35916 111.876 1.29916V2.93917C113.011 3.09917 113.713 3.67916 113.713 4.85916C113.713 5.87916 113.011 6.61916 111.876 6.77916V8.55916ZM107.767 13.3392H109.976V8.43917H111.112C111.38 8.43917 111.649 8.43917 111.876 8.53917V6.79916C111.649 6.79916 111.504 6.85916 111.277 6.85916H109.976V3.07916C110.183 3.01916 110.678 2.97916 111.38 2.97916H111.876V1.33916H111.174C109.873 1.33916 108.634 1.43916 107.767 1.55916V13.3392Z" fill="black"/>
<path d="M118.275 12.7794C118.915 13.1994 120.278 13.5794 121.578 13.5794C124.716 13.5794 126.162 11.8994 126.162 9.99938C126.162 8.29938 125.129 7.25938 123.024 6.45938C121.413 5.87938 120.691 5.45938 120.691 4.55938C120.691 3.81938 121.289 3.07938 122.693 3.07938C123.829 3.07938 124.696 3.43938 125.129 3.65938L125.666 1.91939C125.026 1.59939 124.035 1.33938 122.755 1.33938C120.113 1.33938 118.42 2.81939 118.42 4.71939C118.42 6.45939 119.72 7.51938 121.723 8.19938C123.292 8.71938 123.891 9.25938 123.891 10.1594C123.891 11.0994 123.086 11.7994 121.682 11.7994C120.546 11.7994 119.473 11.4394 118.771 11.0194L118.275 12.7794Z" fill="black"/>
<path d="M68.1695 8.49961C68.1076 6.95961 67.9837 5.11962 67.9837 3.51962C67.5502 4.99962 67.034 6.59961 66.5179 8.07961L64.6805 13.2396H62.9669L61.3773 8.13962C60.8611 6.65962 60.4276 4.99962 60.0973 3.51962H60.0353C59.9734 5.05962 59.9115 6.95962 59.8495 8.61962L59.6018 13.3596H57.496L58.2598 1.47961H61.2327L62.8224 6.27961C63.256 7.63961 63.6482 9.03961 63.9579 10.3996H64.0198C64.3295 9.09961 64.7837 7.63962 65.2173 6.21962L66.9308 1.47961H69.8624L70.5644 13.3596H68.3347L68.1695 8.49961Z" fill="black"/>
<path d="M78.2668 13.5394C81.5907 13.4994 84.0268 11.2394 84.0268 7.33939C84.0268 3.91939 81.9416 1.33938 78.37 1.33938H78.2668V3.05938C80.4965 3.05938 81.632 5.17938 81.632 7.37938C81.632 9.87938 80.4345 11.7994 78.2668 11.7994V13.5394ZM78.2255 13.5394H78.2668V11.8194C76.1403 11.8194 74.9016 9.83938 74.9016 7.49938C74.9016 5.13938 76.0371 3.07938 78.2668 3.07938V1.35939C74.9016 1.39939 72.5687 3.95938 72.5687 7.55938C72.5687 11.0194 74.7571 13.5594 78.1636 13.5594H78.2255V13.5394Z" fill="black"/>
<path d="M100.046 13.5394C103.37 13.4994 105.786 11.2394 105.786 7.33939C105.786 3.91939 103.701 1.33938 100.129 1.33938H100.026V3.05938C102.255 3.05938 103.391 5.17938 103.391 7.37938C103.391 9.87938 102.193 11.7994 100.026 11.7994V13.5394H100.046ZM100.005 13.5394H100.046V11.8194C97.9199 11.8194 96.6812 9.83938 96.6812 7.49938C96.6812 5.13938 97.8167 3.07938 100.046 3.07938V1.35939C96.6812 1.39939 94.3483 3.95938 94.3483 7.55938C94.3483 11.0194 96.5367 13.5594 99.9638 13.5594H100.005V13.5394Z" fill="black"/>
<path d="M88.1558 13.3404H90.3855V3.36037H93.8539V1.54038H84.6255V3.36037H88.1558V13.3404Z" fill="black"/>
<path d="M5.55463 28.4396C3.59334 28.4396 2.33398 27.2996 2.33398 25.4196V22.2596C2.33398 20.3996 3.61398 19.2396 5.51334 19.2396C6.48366 19.2396 7.45399 19.5596 8.2385 20.1396C8.30044 20.1796 8.30044 20.2196 8.25915 20.2796L8.0114 20.6396C7.97011 20.6996 7.92882 20.6996 7.86689 20.6596C7.1856 20.1596 6.33915 19.8796 5.51334 19.8796C3.90302 19.8796 3.03592 20.8596 3.03592 22.2396V25.3996C3.03592 26.7996 3.90302 27.7596 5.53398 27.7596C6.44237 27.7596 7.35076 27.4596 8.07334 26.8796C8.13527 26.8396 8.19721 26.8396 8.21786 26.8996L8.4656 27.2596C8.50689 27.2996 8.50689 27.3596 8.44495 27.3996C7.61915 28.1396 6.56624 28.4396 5.55463 28.4396Z" fill="black"/>
<path d="M12.3045 28.44C10.5703 28.44 9.55872 27.44 9.55872 26.04V24.14C9.55872 22.76 10.5703 21.74 12.3045 21.74C14.0594 21.74 15.0503 22.78 15.0503 24.14V26.04C15.0503 27.44 14.0594 28.44 12.3045 28.44ZM12.3045 27.84C13.6877 27.84 14.369 27.08 14.369 26.04V24.14C14.369 23.1 13.6877 22.34 12.3045 22.34C10.9626 22.34 10.2607 23.1 10.2607 24.14V26.04C10.2607 27.08 10.9626 27.84 12.3045 27.84Z" fill="black"/>
<path d="M16.8042 28.3202C16.7422 28.3202 16.6803 28.2802 16.6803 28.2202V22.3802C16.6803 22.3402 16.7009 22.2802 16.7629 22.2602C17.4648 21.9602 18.2906 21.7802 19.1577 21.7802C20.8713 21.7802 21.9448 22.6002 21.9448 24.3802V28.2402C21.9448 28.3002 21.9035 28.3402 21.8416 28.3402H21.3874C21.3255 28.3402 21.2635 28.3002 21.2635 28.2402V24.4002C21.2635 23.0002 20.4997 22.4002 19.1577 22.4002C18.5177 22.4002 17.8571 22.5202 17.3616 22.7002V28.2402C17.3616 28.3002 17.3203 28.3402 17.2584 28.3402H16.8042V28.3202Z" fill="black"/>
<path d="M23.8871 28.3202C23.8251 28.3202 23.7632 28.2802 23.7632 28.2202V22.3802C23.7632 22.3402 23.7838 22.2802 23.8458 22.2602C24.5477 21.9602 25.3735 21.7802 26.2406 21.7802C27.9542 21.7802 29.0277 22.6002 29.0277 24.3802V28.2402C29.0277 28.3002 28.9864 28.3402 28.9245 28.3402H28.4703C28.4083 28.3402 28.3464 28.3002 28.3464 28.2402V24.4002C28.3464 23.0002 27.5825 22.4002 26.2406 22.4002C25.6006 22.4002 24.94 22.5202 24.4445 22.7002V28.2402C24.4445 28.3002 24.4032 28.3402 24.3412 28.3402H23.8871V28.3202Z" fill="black"/>
<path d="M35.8819 25.34C35.8819 25.4 35.8407 25.44 35.7581 25.44H31.3194V26.14C31.3194 27.22 32.1865 27.84 33.26 27.84C34.2303 27.84 34.8703 27.44 35.3658 27.04C35.4278 27 35.4897 27 35.5103 27.06L35.7374 27.34C35.7994 27.4 35.7994 27.44 35.7168 27.48C35.1181 27.98 34.3336 28.42 33.2394 28.42C31.8768 28.42 30.6174 27.6 30.6174 26.12V24.16C30.6174 22.56 31.7942 21.74 33.26 21.74C34.7052 21.74 35.8613 22.56 35.8613 24.16V25.34H35.8819ZM33.2807 22.36C32.1039 22.36 31.34 22.98 31.34 24.16V24.88H35.2213V24.16C35.2213 23 34.4161 22.36 33.2807 22.36Z" fill="black"/>
<path d="M39.8652 28.44C38.2136 28.44 37.2227 27.42 37.2227 26.08V24.1C37.2227 22.76 38.2136 21.74 39.8652 21.74C40.6291 21.74 41.3104 21.96 41.9298 22.38C41.9917 22.42 42.0123 22.48 41.971 22.52L41.7439 22.84C41.7027 22.88 41.6614 22.9 41.5994 22.86C41.0627 22.5 40.5052 22.32 39.8652 22.32C38.6059 22.32 37.9039 23.08 37.9039 24.06V26.04C37.9039 27.04 38.6059 27.8 39.8652 27.8C40.5465 27.8 41.1659 27.58 41.7646 27.16C41.8265 27.12 41.8885 27.12 41.9091 27.18L42.1362 27.5C42.1775 27.56 42.1775 27.62 42.1156 27.64C41.4549 28.18 40.753 28.44 39.8652 28.44Z" fill="black"/>
<path d="M45.5232 27.8196C45.6883 27.8196 45.9774 27.7996 46.2251 27.7996C46.287 27.7796 46.3283 27.8196 46.3283 27.8996V28.2996C46.3283 28.3596 46.3077 28.3996 46.2251 28.4196C45.998 28.4396 45.6677 28.4596 45.4819 28.4596C44.2225 28.4596 43.3967 27.7196 43.3967 26.3396V20.3996C43.3967 20.3396 43.438 20.2996 43.5 20.2996H43.9129C43.9748 20.2996 44.0161 20.3396 44.0367 20.3996L44.078 21.9196H46.0393C46.1012 21.9196 46.1425 21.9596 46.1425 22.0396V22.4196C46.1425 22.4796 46.1012 22.5196 46.0393 22.5196H44.078V26.2996C44.0987 27.2596 44.5735 27.8196 45.5232 27.8196Z" fill="black"/>
<path d="M47.7943 20.5805C47.5259 20.5805 47.3401 20.4005 47.3401 20.1405C47.3401 19.8805 47.5259 19.7005 47.7943 19.7005C48.042 19.7005 48.2485 19.8805 48.2485 20.1405C48.2485 20.3805 48.042 20.5805 47.7943 20.5805ZM47.5465 28.3205C47.4846 28.3205 47.4433 28.2805 47.4433 28.2205V22.0205C47.4433 21.9405 47.4846 21.9005 47.5465 21.9005H48.0214C48.0833 21.9005 48.1246 21.9405 48.1246 22.0205V28.2205C48.1246 28.2805 48.0833 28.3205 48.0214 28.3205H47.5465Z" fill="black"/>
<path d="M50.1258 28.3202C50.0639 28.3202 50.002 28.2802 50.002 28.2202V22.3802C50.002 22.3402 50.0226 22.2802 50.0845 22.2602C50.7865 21.9602 51.6123 21.7802 52.4794 21.7802C54.1929 21.7802 55.2665 22.6002 55.2665 24.3802V28.2402C55.2665 28.3002 55.2252 28.3402 55.1632 28.3402H54.7091C54.6471 28.3402 54.5852 28.3002 54.5852 28.2402V24.4002C54.5852 23.0002 53.8213 22.4002 52.4794 22.4002C51.8394 22.4002 51.1787 22.5202 50.6832 22.7002V28.2402C50.6832 28.3002 50.642 28.3402 50.58 28.3402H50.1258V28.3202Z" fill="black"/>
<path d="M59.5194 30.8002C58.5078 30.8002 57.7439 30.4602 57.0833 29.8602C57.042 29.8202 57.042 29.7802 57.0627 29.7202L57.2898 29.4002C57.331 29.3602 57.3723 29.3402 57.4343 29.3802C57.9917 29.8602 58.6523 30.2002 59.5194 30.2002C60.8614 30.2002 61.4394 29.5202 61.4394 28.3002V27.6802C60.9027 27.9202 60.2214 28.1002 59.602 28.1002C57.9917 28.1002 56.8562 27.2802 56.8562 25.6002V24.3002C56.8562 22.5202 58.033 21.7802 59.6433 21.7802C60.4691 21.7802 61.3568 21.9602 62.0175 22.2402C62.0794 22.2602 62.1001 22.3202 62.1001 22.3602V28.3602C62.1207 29.8002 61.3362 30.8002 59.5194 30.8002ZM59.6227 27.4802C60.2833 27.4802 60.9439 27.3002 61.4188 27.0402V22.6202C60.9439 22.4602 60.1801 22.3402 59.6227 22.3402C58.322 22.3402 57.5375 22.9002 57.5375 24.2402V25.5402C57.5581 26.9402 58.3839 27.4802 59.6227 27.4802Z" fill="black"/>
<path d="M65.9401 28.3201C65.8782 28.3201 65.8369 28.2601 65.8575 28.2001L69.1401 19.5001C69.1608 19.4601 69.2021 19.4201 69.264 19.4201H69.904C69.9453 19.4201 69.9866 19.4601 70.0279 19.5001L73.3311 28.2001C73.3517 28.2801 73.3104 28.3201 73.2485 28.3201H72.7117C72.6498 28.3201 72.6085 28.2801 72.5879 28.2401L71.6588 25.7201H67.5504L66.6214 28.2401C66.6008 28.3001 66.5595 28.3201 66.4975 28.3201H65.9401ZM67.7569 25.0801H71.4317L69.615 20.2001H69.5737L67.7569 25.0801Z" fill="black"/>
<path d="M76.4886 28.4402C75.5595 28.4402 74.7337 28.1602 74.0112 27.6402C73.9492 27.6002 73.9492 27.5602 73.9699 27.5002L74.197 27.1602C74.2383 27.1002 74.2795 27.0802 74.3621 27.1402C75.0021 27.6002 75.7247 27.8602 76.5299 27.8602C77.5828 27.8602 78.326 27.4202 78.326 26.6202C78.326 25.7402 77.3763 25.5402 76.5299 25.3802C75.5183 25.2002 74.0937 24.8202 74.0937 23.4802C74.0937 22.3602 75.1879 21.7802 76.4679 21.7802C77.3557 21.7802 78.0576 22.0202 78.7183 22.3802C78.7802 22.4202 78.8008 22.4602 78.7595 22.5202L78.5531 22.8602C78.5324 22.9202 78.4705 22.9402 78.4086 22.9002C77.8512 22.5802 77.1699 22.3802 76.4473 22.3802C75.4357 22.3802 74.7544 22.8002 74.7544 23.4802C74.7544 24.3402 75.6834 24.5802 76.6537 24.7802C77.7686 25.0002 79.0279 25.2802 79.0279 26.6002C78.9866 27.7202 78.037 28.4402 76.4886 28.4402Z" fill="black"/>
<path d="M82.8908 21.7605C84.563 21.7605 85.6779 22.5805 85.6779 24.4405V25.7805C85.6779 27.5405 84.6043 28.4405 82.9321 28.4405C82.2508 28.4405 81.5901 28.2405 81.0946 27.9405V30.5605C81.0946 30.6205 81.0533 30.6605 80.9914 30.6605H80.5166C80.4546 30.6605 80.3927 30.6205 80.3927 30.5605V22.3205C80.3927 22.2605 80.4133 22.2205 80.4753 22.2005C81.1979 21.9405 82.0443 21.7605 82.8908 21.7605ZM84.9759 25.7805V24.4405C84.9759 22.9605 84.2121 22.3605 82.8908 22.3605C82.2301 22.3605 81.6108 22.4805 81.0946 22.6605V27.3005C81.5901 27.6405 82.2301 27.8405 82.8908 27.8405C84.2327 27.8405 84.9759 27.2205 84.9759 25.7805Z" fill="black"/>
<path d="M87.6606 20.5805C87.3922 20.5805 87.2064 20.4005 87.2064 20.1405C87.2064 19.8805 87.3922 19.7005 87.6606 19.7005C87.9084 19.7005 88.1148 19.8805 88.1148 20.1405C88.1148 20.3805 87.9084 20.5805 87.6606 20.5805ZM87.4129 28.3205C87.3509 28.3205 87.3096 28.2805 87.3096 28.2205V22.0205C87.3096 21.9405 87.3509 21.9005 87.4129 21.9005H87.8877C87.9497 21.9005 87.9909 21.9405 87.9909 22.0205V28.2205C87.9909 28.2805 87.9497 28.3205 87.8877 28.3205H87.4129Z" fill="black"/>
<path d="M89.9923 28.3202C89.9303 28.3202 89.8684 28.2802 89.8684 28.2202V22.3402C89.8684 22.2802 89.8891 22.2402 89.951 22.2202C90.591 21.9402 91.3755 21.7802 92.1187 21.7802C92.5523 21.7802 92.9858 21.8402 93.44 21.9002C93.5226 21.9202 93.5433 21.9602 93.5433 22.0202V22.4002C93.5433 22.4602 93.4813 22.5002 93.4194 22.4802C93.0271 22.4202 92.5936 22.3802 92.2013 22.3802C91.6026 22.3802 91.0039 22.5002 90.5497 22.6802V28.2402C90.5497 28.3002 90.5084 28.3402 90.4465 28.3402H89.9923V28.3202Z" fill="black"/>
<path d="M96.8041 21.7605C98.3938 21.7605 99.2609 22.6205 99.2609 24.1205V27.9005C99.2609 27.9605 99.2403 28.0005 99.1783 28.0205C98.6209 28.2405 97.7332 28.4405 96.7835 28.4405C95.297 28.4405 94.079 27.7605 94.079 26.4205C94.079 25.1405 95.1112 24.4605 96.7835 24.4605C97.4441 24.4605 98.1048 24.5805 98.5796 24.6605V24.1205C98.5796 23.0205 98.0841 22.3605 96.7835 22.3605C96.0196 22.3605 95.297 22.5805 94.8222 22.8805C94.7809 22.9205 94.719 22.9005 94.6777 22.8605L94.4506 22.5405C94.4093 22.5005 94.4093 22.4405 94.4506 22.4205C95.008 22.0205 95.8338 21.7605 96.8041 21.7605ZM96.7835 27.8405C97.5061 27.8405 98.1254 27.7005 98.5796 27.5405V25.2205C98.1048 25.1205 97.4235 25.0405 96.7835 25.0405C95.4416 25.0405 94.7809 25.5405 94.7809 26.4205C94.7603 27.3205 95.6067 27.8405 96.7835 27.8405Z" fill="black"/>
<path d="M103.122 27.8196C103.288 27.8196 103.577 27.7996 103.824 27.7996C103.886 27.7796 103.928 27.8196 103.928 27.8996V28.2996C103.928 28.3596 103.907 28.3996 103.824 28.4196C103.597 28.4396 103.267 28.4596 103.081 28.4596C101.822 28.4596 100.996 27.7196 100.996 26.3396V20.3996C100.996 20.3396 101.037 20.2996 101.099 20.2996H101.512C101.574 20.2996 101.615 20.3396 101.636 20.3996L101.677 21.9196H103.639C103.7 21.9196 103.742 21.9596 103.742 22.0396V22.4196C103.742 22.4796 103.7 22.5196 103.639 22.5196H101.677V26.2996C101.698 27.2596 102.193 27.8196 103.122 27.8196Z" fill="black"/>
<path d="M105.393 20.5805C105.125 20.5805 104.939 20.4005 104.939 20.1405C104.939 19.8805 105.125 19.7005 105.393 19.7005C105.641 19.7005 105.848 19.8805 105.848 20.1405C105.848 20.3805 105.662 20.5805 105.393 20.5805ZM105.166 28.3205C105.104 28.3205 105.063 28.2805 105.063 28.2205V22.0205C105.063 21.9405 105.104 21.9005 105.166 21.9005H105.641C105.703 21.9005 105.744 21.9405 105.744 22.0205V28.2205C105.744 28.2805 105.703 28.3205 105.641 28.3205H105.166Z" fill="black"/>
<path d="M110.143 28.44C108.408 28.44 107.397 27.44 107.397 26.04V24.14C107.397 22.76 108.408 21.74 110.143 21.74C111.897 21.74 112.888 22.78 112.888 24.14V26.04C112.868 27.44 111.877 28.44 110.143 28.44ZM110.143 27.84C111.526 27.84 112.207 27.08 112.207 26.04V24.14C112.207 23.1 111.526 22.34 110.143 22.34C108.801 22.34 108.099 23.1 108.099 24.14V26.04C108.078 27.08 108.78 27.84 110.143 27.84Z" fill="black"/>
<path d="M114.622 28.3202C114.56 28.3202 114.498 28.2802 114.498 28.2202V22.3802C114.498 22.3402 114.519 22.2802 114.581 22.2602C115.283 21.9602 116.108 21.7802 116.975 21.7802C118.689 21.7802 119.763 22.6002 119.763 24.3802V28.2402C119.763 28.3002 119.721 28.3402 119.659 28.3402H119.205C119.143 28.3402 119.081 28.3002 119.081 28.2402V24.4002C119.081 23.0002 118.317 22.4002 116.975 22.4002C116.335 22.4002 115.675 22.5202 115.179 22.7002V28.2402C115.179 28.3002 115.138 28.3402 115.076 28.3402H114.622V28.3202Z" fill="black"/>
<path d="M123.685 28.4402C122.756 28.4402 121.93 28.1602 121.207 27.6402C121.146 27.6002 121.146 27.5602 121.166 27.5002L121.393 27.1602C121.435 27.1002 121.476 27.0802 121.558 27.1402C122.198 27.6002 122.921 27.8602 123.726 27.8602C124.779 27.8602 125.522 27.4202 125.522 26.6202C125.522 25.7402 124.573 25.5402 123.726 25.3802C122.715 25.2002 121.29 24.8202 121.29 23.4802C121.29 22.3602 122.384 21.7802 123.664 21.7802C124.552 21.7802 125.254 22.0202 125.915 22.3802C125.976 22.4202 125.997 22.4602 125.956 22.5202L125.749 22.8602C125.729 22.9202 125.667 22.9402 125.605 22.9002C125.047 22.5802 124.366 22.3802 123.644 22.3802C122.632 22.3802 121.951 22.8002 121.951 23.4802C121.951 24.3402 122.88 24.5802 123.85 24.7802C124.965 25.0002 126.224 25.2802 126.224 26.6002C126.183 27.7202 125.233 28.4402 123.685 28.4402Z" fill="black"/>
</svg>
