<svg width="160" height="40" viewBox="0 0 160 40" fill="none" xmlns="http://www.w3.org/2000/svg">
<path d="M2.91797 1.84961H17.6793V6.19961H13.447V16.6996H7.27926V6.19961H2.91797V1.84961Z" fill="white"/>
<path d="M25.1612 7.89961L22.0386 16.6996H16.1289L21.9612 1.84961H28.387L34.2966 16.6996H28.3354L25.1612 7.89961Z" fill="white"/>
<path d="M32.9307 1.84961H47.692V6.19961H43.4597V16.6996H37.292V6.19961H32.9307V1.84961Z" fill="white"/>
<path d="M55.1739 7.89961L52.0513 16.6996H46.1416L51.9222 1.84961H58.3997L64.3093 16.6996H58.3481L55.1739 7.89961Z" fill="white"/>
<path d="M139.844 10.699C140.799 10.974 141.264 11.624 141.599 13.149C142.012 14.999 142.425 16.274 142.606 16.674H145.444C145.161 16.074 144.773 14.424 144.283 12.549C143.87 11.099 143.277 10.024 142.115 9.62402V9.54903C143.612 9.07403 144.903 7.74902 144.903 5.82402C144.903 4.57402 144.412 3.49902 143.612 2.82402C142.735 2.09902 141.522 1.69902 139.844 1.62402V3.67403C141.264 3.87403 142.141 4.59902 142.141 6.07402C142.141 7.34902 141.264 8.27402 139.844 8.47402V10.699ZM134.709 16.674H137.47V10.549H138.89C139.225 10.549 139.561 10.549 139.844 10.674V8.49902C139.561 8.49902 139.38 8.57402 139.096 8.57402H137.47V3.84902C137.728 3.77402 138.348 3.72402 139.225 3.72402H139.844V1.67402H138.967C137.341 1.67402 135.793 1.79902 134.709 1.94902V16.674Z" fill="white"/>
<path d="M147.844 15.9743C148.644 16.4993 150.347 16.9743 151.973 16.9743C155.895 16.9743 157.702 14.8743 157.702 12.4993C157.702 10.3743 156.411 9.07431 153.779 8.07431C151.766 7.34931 150.863 6.82431 150.863 5.69931C150.863 4.77431 151.611 3.84932 153.366 3.84932C154.786 3.84932 155.87 4.29931 156.411 4.57431L157.082 2.39932C156.282 1.99932 155.044 1.67432 153.444 1.67432C150.141 1.67432 148.024 3.52432 148.024 5.89932C148.024 8.07432 149.65 9.39932 152.153 10.2493C154.115 10.8993 154.863 11.5743 154.863 12.6993C154.863 13.8743 153.857 14.7493 152.102 14.7493C150.682 14.7493 149.341 14.2993 148.463 13.7743L147.844 15.9743Z" fill="white"/>
<path d="M85.2121 10.6246C85.1346 8.69961 84.9798 6.39961 84.9798 4.39961C84.4379 6.24961 83.7927 8.24961 83.1475 10.0996L80.8508 16.5496H78.7088L76.7217 10.1746C76.0766 8.32461 75.5346 6.24961 75.1217 4.39961H75.0443C74.9669 6.32461 74.8895 8.69961 74.8121 10.7746L74.5024 16.6996H71.8701L72.825 1.84961H76.5411L78.5282 7.84961C79.0701 9.54961 79.5604 11.2996 79.9475 12.9996H80.025C80.4121 11.3746 80.9798 9.54961 81.5217 7.77461L83.6637 1.84961H87.3282L88.2056 16.6996H85.4185L85.2121 10.6246Z" fill="white"/>
<path d="M97.8335 16.9243C101.988 16.8743 105.034 14.0493 105.034 9.17432C105.034 4.89932 102.427 1.67432 97.9626 1.67432H97.8335V3.82431C100.621 3.82431 102.04 6.47431 102.04 9.22431C102.04 12.3493 100.543 14.7493 97.8335 14.7493V16.9243ZM97.7819 16.9243H97.8335V14.7743C95.1755 14.7743 93.6271 12.2993 93.6271 9.37432C93.6271 6.42432 95.0464 3.84932 97.8335 3.84932V1.69932C93.6271 1.74932 90.7109 4.94931 90.7109 9.44931C90.7109 13.7743 93.4464 16.9493 97.7045 16.9493H97.7819V16.9243Z" fill="white"/>
<path d="M125.058 16.9243C129.213 16.8743 132.232 14.0493 132.232 9.17432C132.232 4.89932 129.626 1.67432 125.161 1.67432H125.032V3.82431C127.819 3.82431 129.239 6.47431 129.239 9.22431C129.239 12.3493 127.742 14.7493 125.032 14.7493V16.9243H125.058ZM125.007 16.9243H125.058V14.7743C122.4 14.7743 120.852 12.2993 120.852 9.37432C120.852 6.42432 122.271 3.84932 125.058 3.84932V1.69932C120.852 1.74932 117.936 4.94931 117.936 9.44931C117.936 13.7743 120.671 16.9493 124.955 16.9493H125.007V16.9243Z" fill="white"/>
<path d="M110.195 16.6755H112.982V4.20053H117.318V1.92554H105.782V4.20053H110.195V16.6755Z" fill="white"/>
<path d="M6.94378 35.5496C4.49216 35.5496 2.91797 34.1246 2.91797 31.7746V27.8246C2.91797 25.4996 4.51797 24.0496 6.89216 24.0496C8.10507 24.0496 9.31797 24.4496 10.2986 25.1746C10.376 25.2246 10.376 25.2746 10.3244 25.3496L10.0147 25.7996C9.96313 25.8746 9.91152 25.8746 9.8341 25.8246C8.98248 25.1996 7.92442 24.8496 6.89216 24.8496C4.87926 24.8496 3.79539 26.0746 3.79539 27.7996V31.7496C3.79539 33.4996 4.87926 34.6996 6.91797 34.6996C8.05345 34.6996 9.18894 34.3246 10.0922 33.5996C10.1696 33.5496 10.247 33.5496 10.2728 33.6246L10.5825 34.0746C10.6341 34.1246 10.6341 34.1996 10.5567 34.2496C9.52442 35.1746 8.20829 35.5496 6.94378 35.5496Z" fill="white"/>
<path d="M15.3805 35.55C13.2128 35.55 11.9482 34.3 11.9482 32.55V30.175C11.9482 28.45 13.2128 27.175 15.3805 27.175C17.574 27.175 18.8128 28.475 18.8128 30.175V32.55C18.8128 34.3 17.574 35.55 15.3805 35.55ZM15.3805 34.8C17.1095 34.8 17.9611 33.85 17.9611 32.55V30.175C17.9611 28.875 17.1095 27.925 15.3805 27.925C13.7031 27.925 12.8257 28.875 12.8257 30.175V32.55C12.8257 33.85 13.7031 34.8 15.3805 34.8Z" fill="white"/>
<path d="M21.0054 35.4003C20.928 35.4003 20.8506 35.3503 20.8506 35.2753V27.9753C20.8506 27.9253 20.8764 27.8503 20.9538 27.8253C21.8312 27.4503 22.8635 27.2253 23.9474 27.2253C26.0893 27.2253 27.4312 28.2503 27.4312 30.4753V35.3003C27.4312 35.3753 27.3796 35.4253 27.3022 35.4253H26.7345C26.657 35.4253 26.5796 35.3753 26.5796 35.3003V30.5003C26.5796 28.7503 25.6248 28.0003 23.9474 28.0003C23.1474 28.0003 22.3216 28.1503 21.7022 28.3753V35.3003C21.7022 35.3753 21.6506 35.4253 21.5732 35.4253H21.0054V35.4003Z" fill="white"/>
<path d="M29.8589 35.4003C29.7815 35.4003 29.7041 35.3503 29.7041 35.2753V27.9753C29.7041 27.9253 29.7299 27.8503 29.8073 27.8253C30.6847 27.4503 31.717 27.2253 32.8009 27.2253C34.9428 27.2253 36.2847 28.2503 36.2847 30.4753V35.3003C36.2847 35.3753 36.2331 35.4253 36.1557 35.4253H35.588C35.5106 35.4253 35.4331 35.3753 35.4331 35.3003V30.5003C35.4331 28.7503 34.4783 28.0003 32.8009 28.0003C32.0009 28.0003 31.1751 28.1503 30.5557 28.3753V35.3003C30.5557 35.3753 30.5041 35.4253 30.4267 35.4253H29.8589V35.4003Z" fill="white"/>
<path d="M44.8521 31.675C44.8521 31.75 44.8005 31.8 44.6973 31.8H39.1489V32.675C39.1489 34.025 40.2328 34.8 41.5747 34.8C42.7876 34.8 43.5876 34.3 44.207 33.8C44.2844 33.75 44.3618 33.75 44.3876 33.825L44.6715 34.175C44.7489 34.25 44.7489 34.3 44.6457 34.35C43.8973 34.975 42.9166 35.525 41.5489 35.525C39.8457 35.525 38.2715 34.5 38.2715 32.65V30.2C38.2715 28.2 39.7425 27.175 41.5747 27.175C43.3812 27.175 44.8263 28.2 44.8263 30.2V31.675H44.8521ZM41.6005 27.95C40.1295 27.95 39.1747 28.725 39.1747 30.2V31.1H44.0263V30.2C44.0263 28.75 43.0199 27.95 41.6005 27.95Z" fill="white"/>
<path d="M49.8315 35.55C47.767 35.55 46.5283 34.275 46.5283 32.6V30.125C46.5283 28.45 47.767 27.175 49.8315 27.175C50.7864 27.175 51.638 27.45 52.4122 27.975C52.4896 28.025 52.5154 28.1 52.4638 28.15L52.1799 28.55C52.1283 28.6 52.0767 28.625 51.9993 28.575C51.3283 28.125 50.6315 27.9 49.8315 27.9C48.2574 27.9 47.3799 28.85 47.3799 30.075V32.55C47.3799 33.8 48.2574 34.75 49.8315 34.75C50.6832 34.75 51.4574 34.475 52.2057 33.95C52.2832 33.9 52.3606 33.9 52.3864 33.975L52.6703 34.375C52.7219 34.45 52.7219 34.525 52.6444 34.55C51.8186 35.225 50.9412 35.55 49.8315 35.55Z" fill="white"/>
<path d="M56.9042 34.7745C57.1106 34.7745 57.4719 34.7495 57.7816 34.7495C57.859 34.7245 57.9106 34.7745 57.9106 34.8745V35.3745C57.9106 35.4495 57.8848 35.4995 57.7816 35.5245C57.4977 35.5495 57.0848 35.5745 56.8525 35.5745C55.2784 35.5745 54.2461 34.6495 54.2461 32.9245V25.4995C54.2461 25.4245 54.2977 25.3745 54.3751 25.3745H54.8913C54.9687 25.3745 55.0203 25.4245 55.0461 25.4995L55.0977 27.3995H57.5493C57.6267 27.3995 57.6784 27.4495 57.6784 27.5495V28.0245C57.6784 28.0995 57.6267 28.1495 57.5493 28.1495H55.0977V32.8745C55.1235 34.0745 55.7171 34.7745 56.9042 34.7745Z" fill="white"/>
<path d="M59.7425 25.7257C59.4071 25.7257 59.1748 25.5007 59.1748 25.1757C59.1748 24.8507 59.4071 24.6257 59.7425 24.6257C60.0522 24.6257 60.3103 24.8507 60.3103 25.1757C60.3103 25.4757 60.0522 25.7257 59.7425 25.7257ZM59.4329 35.4007C59.3554 35.4007 59.3038 35.3507 59.3038 35.2757V27.5257C59.3038 27.4257 59.3554 27.3757 59.4329 27.3757H60.0264C60.1038 27.3757 60.1555 27.4257 60.1555 27.5257V35.2757C60.1555 35.3507 60.1038 35.4007 60.0264 35.4007H59.4329Z" fill="white"/>
<path d="M62.6578 35.4003C62.5804 35.4003 62.5029 35.3503 62.5029 35.2753V27.9753C62.5029 27.9253 62.5287 27.8503 62.6062 27.8253C63.4836 27.4503 64.5158 27.2253 65.5997 27.2253C67.7416 27.2253 69.0836 28.2503 69.0836 30.4753V35.3003C69.0836 35.3753 69.032 35.4253 68.9545 35.4253H68.3868C68.3094 35.4253 68.232 35.3753 68.232 35.3003V30.5003C68.232 28.7503 67.2771 28.0003 65.5997 28.0003C64.7997 28.0003 63.9739 28.1503 63.3545 28.3753V35.3003C63.3545 35.3753 63.3029 35.4253 63.2255 35.4253H62.6578V35.4003Z" fill="white"/>
<path d="M74.3993 38.5003C73.1348 38.5003 72.18 38.0753 71.3542 37.3253C71.3026 37.2753 71.3026 37.2253 71.3284 37.1503L71.6122 36.7503C71.6639 36.7003 71.7155 36.6753 71.7929 36.7253C72.4897 37.3253 73.3155 37.7503 74.3993 37.7503C76.0768 37.7503 76.7993 36.9003 76.7993 35.3753V34.6003C76.1284 34.9003 75.2768 35.1253 74.5026 35.1253C72.4897 35.1253 71.0703 34.1003 71.0703 32.0003V30.3753C71.0703 28.1503 72.5413 27.2253 74.5542 27.2253C75.5864 27.2253 76.6961 27.4503 77.5219 27.8003C77.5993 27.8253 77.6251 27.9003 77.6251 27.9503V35.4503C77.651 37.2503 76.6703 38.5003 74.3993 38.5003ZM74.5284 34.3503C75.3542 34.3503 76.18 34.1253 76.7735 33.8003V28.2753C76.18 28.0753 75.2251 27.9253 74.5284 27.9253C72.9026 27.9253 71.9219 28.6253 71.9219 30.3003V31.9253C71.9477 33.6753 72.98 34.3503 74.5284 34.3503Z" fill="white"/>
<path d="M82.4254 35.4001C82.3479 35.4001 82.2963 35.3251 82.3221 35.2501L86.4254 24.3751C86.4512 24.3251 86.5028 24.2751 86.5802 24.2751H87.3802C87.4318 24.2751 87.4834 24.3251 87.535 24.3751L91.6641 35.2501C91.6899 35.3501 91.6383 35.4001 91.5608 35.4001H90.8899C90.8125 35.4001 90.7609 35.3501 90.735 35.3001L89.5738 32.1501H84.4383L83.277 35.3001C83.2512 35.3751 83.1996 35.4001 83.1221 35.4001H82.4254ZM84.6963 31.3501H89.2899L87.0189 25.2501H86.9673L84.6963 31.3501Z" fill="white"/>
<path d="M95.6111 35.5503C94.4498 35.5503 93.4175 35.2003 92.5143 34.5503C92.4369 34.5003 92.4369 34.4503 92.4627 34.3753L92.7466 33.9503C92.7982 33.8753 92.8498 33.8503 92.953 33.9253C93.753 34.5003 94.6563 34.8253 95.6627 34.8253C96.9788 34.8253 97.9079 34.2753 97.9079 33.2753C97.9079 32.1753 96.7208 31.9253 95.6627 31.7253C94.3982 31.5003 92.6175 31.0253 92.6175 29.3503C92.6175 27.9503 93.9853 27.2253 95.5853 27.2253C96.695 27.2253 97.5724 27.5253 98.3982 27.9753C98.4756 28.0253 98.5014 28.0753 98.4498 28.1503L98.1917 28.5753C98.1659 28.6503 98.0885 28.6753 98.0111 28.6253C97.3143 28.2253 96.4627 27.9753 95.5595 27.9753C94.295 27.9753 93.4433 28.5003 93.4433 29.3503C93.4433 30.4253 94.6046 30.7253 95.8175 30.9753C97.2111 31.2503 98.7853 31.6003 98.7853 33.2503C98.7337 34.6503 97.5466 35.5503 95.6111 35.5503Z" fill="white"/>
<path d="M103.614 27.2007C105.704 27.2007 107.098 28.2257 107.098 30.5507V32.2257C107.098 34.4257 105.756 35.5507 103.665 35.5507C102.814 35.5507 101.988 35.3007 101.369 34.9257V38.2007C101.369 38.2757 101.317 38.3257 101.24 38.3257H100.646C100.569 38.3257 100.491 38.2757 100.491 38.2007V27.9007C100.491 27.8257 100.517 27.7757 100.594 27.7507C101.498 27.4257 102.556 27.2007 103.614 27.2007ZM106.22 32.2257V30.5507C106.22 28.7007 105.265 27.9507 103.614 27.9507C102.788 27.9507 102.014 28.1007 101.369 28.3257V34.1257C101.988 34.5507 102.788 34.8007 103.614 34.8007C105.291 34.8007 106.22 34.0257 106.22 32.2257Z" fill="white"/>
<path d="M109.576 25.7257C109.24 25.7257 109.008 25.5007 109.008 25.1757C109.008 24.8507 109.24 24.6257 109.576 24.6257C109.885 24.6257 110.143 24.8507 110.143 25.1757C110.143 25.4757 109.885 25.7257 109.576 25.7257ZM109.266 35.4007C109.188 35.4007 109.137 35.3507 109.137 35.2757V27.5257C109.137 27.4257 109.188 27.3757 109.266 27.3757H109.859C109.937 27.3757 109.988 27.4257 109.988 27.5257V35.2757C109.988 35.3507 109.937 35.4007 109.859 35.4007H109.266Z" fill="white"/>
<path d="M112.491 35.4003C112.413 35.4003 112.336 35.3503 112.336 35.2753V27.9253C112.336 27.8503 112.362 27.8003 112.439 27.7753C113.239 27.4253 114.22 27.2253 115.149 27.2253C115.691 27.2253 116.233 27.3003 116.8 27.3753C116.904 27.4003 116.929 27.4503 116.929 27.5253V28.0003C116.929 28.0753 116.852 28.1253 116.775 28.1003C116.284 28.0253 115.742 27.9753 115.252 27.9753C114.504 27.9753 113.755 28.1253 113.188 28.3503V35.3003C113.188 35.3753 113.136 35.4253 113.059 35.4253H112.491V35.4003Z" fill="white"/>
<path d="M121.005 27.2007C122.992 27.2007 124.076 28.2757 124.076 30.1507V34.8757C124.076 34.9507 124.05 35.0007 123.973 35.0257C123.276 35.3007 122.166 35.5507 120.979 35.5507C119.121 35.5507 117.599 34.7007 117.599 33.0257C117.599 31.4257 118.889 30.5757 120.979 30.5757C121.805 30.5757 122.631 30.7257 123.224 30.8257V30.1507C123.224 28.7757 122.605 27.9507 120.979 27.9507C120.024 27.9507 119.121 28.2257 118.528 28.6007C118.476 28.6507 118.399 28.6257 118.347 28.5757L118.063 28.1757C118.012 28.1257 118.012 28.0507 118.063 28.0257C118.76 27.5257 119.792 27.2007 121.005 27.2007ZM120.979 34.8007C121.882 34.8007 122.657 34.6257 123.224 34.4257V31.5257C122.631 31.4007 121.779 31.3007 120.979 31.3007C119.302 31.3007 118.476 31.9257 118.476 33.0257C118.45 34.1507 119.508 34.8007 120.979 34.8007Z" fill="white"/>
<path d="M128.903 34.7745C129.11 34.7745 129.471 34.7495 129.781 34.7495C129.858 34.7245 129.91 34.7745 129.91 34.8745V35.3745C129.91 35.4495 129.884 35.4995 129.781 35.5245C129.497 35.5495 129.084 35.5745 128.852 35.5745C127.277 35.5745 126.245 34.6495 126.245 32.9245V25.4995C126.245 25.4245 126.297 25.3745 126.374 25.3745H126.89C126.968 25.3745 127.019 25.4245 127.045 25.4995L127.097 27.3995H129.548C129.626 27.3995 129.677 27.4495 129.677 27.5495V28.0245C129.677 28.0995 129.626 28.1495 129.548 28.1495H127.097V32.8745C127.123 34.0745 127.742 34.7745 128.903 34.7745Z" fill="white"/>
<path d="M131.742 25.7257C131.406 25.7257 131.174 25.5007 131.174 25.1757C131.174 24.8507 131.406 24.6257 131.742 24.6257C132.051 24.6257 132.309 24.8507 132.309 25.1757C132.309 25.4757 132.077 25.7257 131.742 25.7257ZM131.458 35.4007C131.38 35.4007 131.329 35.3507 131.329 35.2757V27.5257C131.329 27.4257 131.38 27.3757 131.458 27.3757H132.051C132.129 27.3757 132.18 27.4257 132.18 27.5257V35.2757C132.18 35.3507 132.129 35.4007 132.051 35.4007H131.458Z" fill="white"/>
<path d="M137.678 35.55C135.511 35.55 134.246 34.3 134.246 32.55V30.175C134.246 28.45 135.511 27.175 137.678 27.175C139.872 27.175 141.111 28.475 141.111 30.175V32.55C141.085 34.3 139.846 35.55 137.678 35.55ZM137.678 34.8C139.407 34.8 140.259 33.85 140.259 32.55V30.175C140.259 28.875 139.407 27.925 137.678 27.925C136.001 27.925 135.124 28.875 135.124 30.175V32.55C135.098 33.85 135.975 34.8 137.678 34.8Z" fill="white"/>
<path d="M143.277 35.4003C143.199 35.4003 143.122 35.3503 143.122 35.2753V27.9753C143.122 27.9253 143.148 27.8503 143.225 27.8253C144.103 27.4503 145.135 27.2253 146.219 27.2253C148.361 27.2253 149.703 28.2503 149.703 30.4753V35.3003C149.703 35.3753 149.651 35.4253 149.574 35.4253H149.006C148.929 35.4253 148.851 35.3753 148.851 35.3003V30.5003C148.851 28.7503 147.896 28.0003 146.219 28.0003C145.419 28.0003 144.593 28.1503 143.974 28.3753V35.3003C143.974 35.3753 143.922 35.4253 143.845 35.4253H143.277V35.4003Z" fill="white"/>
<path d="M154.606 35.5503C153.445 35.5503 152.413 35.2003 151.509 34.5503C151.432 34.5003 151.432 34.4503 151.458 34.3753L151.742 33.9503C151.793 33.8753 151.845 33.8503 151.948 33.9253C152.748 34.5003 153.651 34.8253 154.658 34.8253C155.974 34.8253 156.903 34.2753 156.903 33.2753C156.903 32.1753 155.716 31.9253 154.658 31.7253C153.393 31.5003 151.613 31.0253 151.613 29.3503C151.613 27.9503 152.98 27.2253 154.58 27.2253C155.69 27.2253 156.567 27.5253 157.393 27.9753C157.471 28.0253 157.497 28.0753 157.445 28.1503L157.187 28.5753C157.161 28.6503 157.084 28.6753 157.006 28.6253C156.309 28.2253 155.458 27.9753 154.555 27.9753C153.29 27.9753 152.438 28.5003 152.438 29.3503C152.438 30.4253 153.6 30.7253 154.813 30.9753C156.206 31.2503 157.78 31.6003 157.78 33.2503C157.729 34.6503 156.542 35.5503 154.606 35.5503Z" fill="white"/>
</svg>
